<svg width="68" height="68" viewBox="0 0 68 68" fill="none" xmlns="http://www.w3.org/2000/svg">
<path d="M14.7974 61.8131L10.5246 13.8885H57.4754L53.1983 61.8056L33.9713 67.1357L14.7974 61.8131Z" fill="#E44D26"/>
<path d="M34 63.0615L49.5359 58.7541L53.1914 17.8075H34V63.0615Z" fill="#F16529"/>
<path d="M34 35.5821H26.222L25.6854 29.5625H34V23.6847H19.2616L19.4018 25.262L20.8468 41.4593H34V35.5821ZM34 50.8465L33.974 50.8534L27.4285 49.0854L27.0098 44.3982H21.1093L21.9327 53.627L33.9729 56.9697L34 56.9617V50.8465Z" fill="#EBEBEB"/>
<path d="M14.893 0.864319H17.8797V3.81594H20.6125V0.864319H23.5997V9.80101H20.6125V6.80848H17.8803V9.80101H14.893V0.864319ZM27.5272 3.82816H24.8975V0.864319H33.1452V3.82816H30.5144V9.80101H27.5272V3.82816ZM34.4542 0.864319H37.5684L39.4846 4.00454L41.3987 0.864319H44.5145V9.80101H41.5389V5.37144L39.4846 8.54885H39.4325L37.3766 5.37144V9.80101H34.4537V0.864319H34.4542ZM46.0014 0.864319H48.9892V6.84726H53.1898V9.80154H46.0014V0.864319Z" fill="black"/>
<path d="M33.9798 35.5821V41.4593H41.2175L40.5354 49.0822L33.9798 50.8518V56.9665L46.0296 53.627L46.1178 52.6336L47.499 37.1599L47.6425 35.5821H46.0583H33.9798ZM33.9798 23.6847V29.5625H48.1774L48.2948 28.2413L48.5631 25.262L48.7039 23.6847H33.9798Z" fill="white"/>
</svg>
